<svg width="129" height="128" viewBox="0 0 129 128" fill="none" xmlns="http://www.w3.org/2000/svg">
<path d="M97.6139 74.8537L113.906 70.455L108.056 50.5625L90.3652 57.8147L97.6139 74.8537Z" fill="white"/>
<path d="M97.6099 75.6134C97.4608 75.6134 97.3149 75.5698 97.1901 75.4873C97.0659 75.4047 96.9687 75.2882 96.9098 75.1506L89.6643 58.112C89.6246 58.0193 89.6042 57.9196 89.6035 57.8189C89.6029 57.7181 89.6227 57.6182 89.6611 57.525C89.6989 57.4319 89.7559 57.3472 89.8269 57.276C89.8986 57.2049 89.9831 57.1485 90.0765 57.1104L107.765 49.8582C107.863 49.8185 107.969 49.7997 108.075 49.8031C108.181 49.8065 108.285 49.8321 108.38 49.878C108.476 49.924 108.561 49.9894 108.629 50.07C108.699 50.1506 108.75 50.2448 108.78 50.3464L114.631 70.2406C114.66 70.3378 114.668 70.4396 114.657 70.5401C114.646 70.6412 114.615 70.7385 114.565 70.8268C114.516 70.9151 114.449 70.9932 114.369 71.0553C114.289 71.118 114.197 71.1634 114.1 71.1897L97.8077 75.5884C97.743 75.605 97.6765 75.6134 97.6099 75.6134ZM91.3655 58.2261L98.0535 73.9475L112.951 69.9231L107.563 51.5851L91.3655 58.2261Z" fill="#101014"/>
<path d="M91.703 66.7426L113.766 53.0028L101.169 29.8555L81.8086 46.8397L91.703 66.7426Z" fill="white"/>
<path d="M91.704 67.5038C91.6336 67.5032 91.5638 67.4936 91.496 67.4744C91.3942 67.4456 91.2995 67.3957 91.2176 67.3278C91.1356 67.2606 91.0691 67.1761 91.0224 67.0814L81.1331 47.176C81.0576 47.0257 81.0345 46.8547 81.0672 46.6897C81.0992 46.5248 81.1849 46.3752 81.3117 46.2644L100.672 29.2751C100.757 29.1998 100.859 29.1447 100.969 29.114C101.079 29.0833 101.195 29.0777 101.307 29.0977C101.419 29.1176 101.525 29.1626 101.618 29.2293C101.711 29.2961 101.787 29.3828 101.842 29.483L114.435 52.6392C114.53 52.8101 114.555 53.0108 114.505 53.1996C114.455 53.3884 114.336 53.5509 114.169 53.6535L92.1084 67.3918C91.9868 67.4661 91.8467 67.5051 91.704 67.5038ZM82.7517 47.0302L92.0073 65.6574L112.757 52.7356L100.957 31.0552L82.7517 47.0302Z" fill="#101014"/>
<path d="M85.3214 58.9616L103.999 43.514L88.7518 16.6113L74.8574 39.6128L85.3214 58.9616Z" fill="white"/>
<path d="M85.3209 59.7227C85.2716 59.723 85.223 59.7184 85.175 59.7088C85.0649 59.6878 84.9612 59.6428 84.8703 59.577C84.7801 59.5113 84.7052 59.4264 84.6514 59.3284L74.1887 39.9745C74.1247 39.8574 74.0927 39.7253 74.0959 39.5918C74.0991 39.4583 74.1369 39.3279 74.2066 39.2138L88.101 16.2212C88.1708 16.1082 88.2681 16.0151 88.3839 15.9507C88.4998 15.8863 88.6303 15.8528 88.7628 15.8535C88.8953 15.855 89.0246 15.8908 89.1385 15.9575C89.2524 16.0242 89.3471 16.1195 89.413 16.2339L104.66 43.1391C104.749 43.2946 104.779 43.4762 104.747 43.6519C104.714 43.8276 104.621 43.9863 104.483 44.1002L85.8047 59.549C85.6684 59.6614 85.4975 59.7228 85.3209 59.7227ZM75.733 39.6335L85.5487 57.7866L103.023 43.3331L88.7353 18.123L75.733 39.6335Z" fill="#101014"/>
<path d="M96.2024 40.0963C96.0712 40.0963 95.9425 40.0626 95.828 39.9981C95.7141 39.9337 95.6187 39.8409 95.5509 39.7286L87.9182 27.0881C87.8139 26.9154 87.7825 26.7084 87.8305 26.5124C87.8785 26.3165 88.0027 26.1478 88.1755 26.0434C88.3483 25.939 88.555 25.9074 88.7515 25.9557C88.9473 26.0039 89.1157 26.1281 89.22 26.3008L96.8501 38.9426C96.9198 39.0579 96.9576 39.1897 96.9595 39.3243C96.9614 39.459 96.9275 39.5918 96.8616 39.7091C96.7957 39.8265 96.699 39.9242 96.5832 39.9922C96.4667 40.0602 96.3342 40.0962 96.1998 40.0963H96.2024Z" fill="#101014"/>
<path d="M91.9549 43.082C91.8288 43.0815 91.7046 43.0498 91.5939 42.9895C91.4832 42.9294 91.3897 42.8427 91.3206 42.7372L84.728 32.6425C84.6352 32.4747 84.6089 32.278 84.655 32.0919C84.7011 31.9058 84.8157 31.7439 84.9757 31.6386C85.1363 31.5333 85.3302 31.4925 85.519 31.5241C85.7085 31.5558 85.8787 31.6578 85.9958 31.8095L92.5885 41.9042C92.6633 42.0188 92.7062 42.1515 92.7126 42.2884C92.7184 42.4253 92.687 42.5612 92.6224 42.6818C92.5571 42.8025 92.4611 42.9033 92.3433 42.9738C92.2262 43.0443 92.0918 43.0816 91.9549 43.082Z" fill="#101014"/>
<path d="M108.387 65.7023C108.225 65.703 108.067 65.6511 107.936 65.5551C107.806 65.4591 107.709 65.3235 107.66 65.1686L105.407 57.9827C105.378 57.8869 105.367 57.7862 105.376 57.6864C105.385 57.5866 105.414 57.4895 105.461 57.4007C105.507 57.3119 105.571 57.2332 105.648 57.169C105.725 57.1048 105.814 57.0565 105.91 57.0267C106.005 56.9969 106.106 56.9862 106.206 56.9953C106.306 57.0044 106.403 57.0331 106.492 57.0798C106.581 57.1263 106.659 57.19 106.723 57.2671C106.787 57.3441 106.836 57.433 106.865 57.5288L109.116 64.7135C109.176 64.9062 109.158 65.1148 109.064 65.2934C108.971 65.4726 108.81 65.607 108.618 65.6671C108.543 65.6908 108.465 65.703 108.387 65.7023Z" fill="#101014"/>
<path d="M104.076 65.6477C103.912 65.6477 103.752 65.5946 103.621 65.4967C103.489 65.3981 103.393 65.2599 103.347 65.1031L102.019 60.6209C101.962 60.4274 101.984 60.219 102.081 60.0418C102.177 59.8645 102.34 59.7328 102.533 59.6757C102.727 59.6185 102.935 59.6406 103.112 59.737C103.29 59.8334 103.422 59.9963 103.479 60.1898L104.802 64.6717C104.836 64.785 104.842 64.9053 104.821 65.0218C104.801 65.1383 104.753 65.2484 104.682 65.3431C104.611 65.4378 104.519 65.5146 104.413 65.5677C104.307 65.6208 104.19 65.6484 104.072 65.6477H104.076Z" fill="#101014"/>
<path d="M33.9151 80.2285L18.6387 102.113L34.6225 114.286L47.0361 95.8336L33.9151 80.2285Z" fill="white"/>
<path d="M34.6227 115.046C34.4566 115.046 34.2949 114.992 34.1625 114.891L18.1773 102.72C18.021 102.601 17.9167 102.426 17.8862 102.233C17.8557 102.039 17.9014 101.84 18.0138 101.679L33.2915 79.7961C33.3583 79.7001 33.4461 79.6214 33.5483 79.565C33.6505 79.5087 33.7643 79.4767 33.8809 79.4716C33.9974 79.4659 34.1136 79.4876 34.2205 79.5343C34.3274 79.581 34.4221 79.6521 34.4972 79.741L47.6183 95.3436C47.7246 95.4697 47.787 95.6278 47.7959 95.7922C47.8048 95.9574 47.7598 96.1206 47.6677 96.2575L35.2541 114.71C35.1963 114.796 35.1214 114.869 35.0342 114.926C34.947 114.981 34.8493 115.019 34.747 115.036C34.706 115.043 34.6644 115.047 34.6227 115.046ZM19.6797 101.949L34.4427 113.193L46.0854 95.8838L33.9711 81.4767L19.6797 101.949Z" fill="#101014"/>
<path d="M32.9238 108.664C32.7627 108.664 32.6059 108.612 32.4763 108.517L23.4415 101.929C23.3576 101.871 23.2861 101.797 23.2313 101.712C23.1765 101.626 23.1394 101.531 23.1222 101.43C23.1051 101.33 23.1082 101.227 23.1314 101.128C23.1547 101.029 23.1975 100.935 23.2575 100.853C23.3175 100.771 23.3933 100.702 23.4806 100.649C23.5678 100.597 23.6646 100.563 23.7654 100.549C23.8661 100.534 23.9687 100.54 24.067 100.567C24.1654 100.592 24.2575 100.638 24.3379 100.7L33.3777 107.293C33.5076 107.388 33.6041 107.521 33.6536 107.674C33.7031 107.827 33.7029 107.991 33.653 108.144C33.6032 108.297 33.5063 108.43 33.3762 108.524C33.2461 108.619 33.0895 108.669 32.9289 108.669L32.9238 108.664Z" fill="#101014"/>
<path d="M35.5685 104.291C35.3988 104.291 35.2339 104.235 35.1007 104.13L27.2222 97.9744C27.1434 97.913 27.0776 97.8362 27.0284 97.7491C26.9791 97.6621 26.9475 97.5667 26.9354 97.4675C26.9232 97.3683 26.9306 97.2672 26.9573 97.1712C26.9841 97.0746 27.0294 96.985 27.0909 96.9062C27.1525 96.8275 27.2289 96.7616 27.3159 96.7123C27.4029 96.663 27.4987 96.631 27.5979 96.6189C27.6971 96.6067 27.7977 96.6144 27.894 96.6413C27.9903 96.6682 28.0804 96.713 28.1592 96.775L36.0364 102.931C36.1607 103.029 36.2516 103.163 36.2963 103.315C36.3411 103.466 36.3375 103.628 36.286 103.777C36.2346 103.927 36.1378 104.057 36.0092 104.148C35.8806 104.241 35.7266 104.291 35.5685 104.291Z" fill="#101014"/>
<path d="M32.7118 66.8469L12.137 66.123L11.6172 91.2814L42.5085 90.4494L32.7118 66.8469Z" fill="white"/>
<path d="M11.6164 92.0377C11.5152 92.0377 11.415 92.0178 11.3217 91.9788C11.2284 91.9398 11.1439 91.8822 11.073 91.8098C11.0022 91.7375 10.9464 91.6518 10.9091 91.5577C10.8718 91.4636 10.8536 91.3631 10.8556 91.262L11.3755 66.1042C11.3776 66.0031 11.3997 65.9039 11.4406 65.8118C11.4814 65.7196 11.5402 65.6364 11.6134 65.5673C11.6867 65.4982 11.773 65.4438 11.8673 65.4086C11.9616 65.3727 12.0621 65.3561 12.1628 65.3599L32.7376 66.0838C32.8832 66.0889 33.0243 66.1356 33.1441 66.2182C33.2639 66.3014 33.3574 66.4172 33.4134 66.5516L43.2101 90.1542C43.2575 90.2681 43.2764 90.3916 43.2652 90.5145C43.254 90.6374 43.2131 90.7558 43.146 90.8594C43.0788 90.9631 42.9875 91.0489 42.8798 91.109C42.7722 91.1698 42.6514 91.2031 42.528 91.2063L11.6367 92.0377H11.6164ZM12.8842 66.9068L12.3935 90.4998L41.3806 89.719L32.1962 67.5897L12.8842 66.9068Z" fill="#101014"/>
<path d="M18.5421 86.4139C18.346 86.4139 18.1573 86.3384 18.0155 86.2027C17.8738 86.067 17.7899 85.882 17.7814 85.6862L17.1335 70.7377C17.1292 70.6379 17.1445 70.538 17.1788 70.444C17.213 70.3505 17.2654 70.2641 17.333 70.1905C17.4006 70.1163 17.482 70.0568 17.5726 70.0145C17.6633 69.9723 17.7614 69.9486 17.8613 69.9441C17.9612 69.9396 18.061 69.955 18.1548 69.9896C18.2488 70.0235 18.3351 70.076 18.4088 70.1438C18.4825 70.211 18.5422 70.2929 18.5844 70.3832C18.6267 70.474 18.6506 70.572 18.6549 70.6718L19.3041 85.6196C19.3085 85.7195 19.2932 85.8193 19.2591 85.9134C19.225 86.0075 19.1727 86.0939 19.1052 86.1675C19.0378 86.2411 18.9564 86.3006 18.866 86.3428C18.7754 86.3851 18.6774 86.4094 18.5776 86.4139H18.5421Z" fill="#101014"/>
<path d="M24.0746 86.1403C23.8785 86.1403 23.6898 86.0648 23.548 85.9291C23.4063 85.7935 23.3224 85.6085 23.3139 85.4127L22.6648 70.4642C22.656 70.2626 22.7278 70.0655 22.8643 69.917C23.0007 69.7679 23.1907 69.6795 23.3925 69.6706C23.5943 69.6623 23.7912 69.7339 23.94 69.8703C24.0889 70.0066 24.1774 70.1967 24.1862 70.3983L24.8353 85.3467C24.8398 85.4466 24.8245 85.5458 24.7903 85.6399C24.7562 85.7339 24.7039 85.8203 24.6365 85.8939C24.569 85.9675 24.4877 86.0271 24.3972 86.0693C24.3066 86.1115 24.2087 86.1359 24.1089 86.1403H24.0746Z" fill="#101014"/>
<path d="M39.0736 100.099C38.9017 100.099 38.735 100.04 38.6007 99.9329L31.0024 93.8984C30.9242 93.8356 30.8589 93.7588 30.8104 93.6718C30.762 93.5841 30.7311 93.4881 30.7198 93.3889C30.7084 93.2897 30.7167 93.1886 30.7442 93.0926C30.7718 92.9966 30.8179 92.907 30.8801 92.8289C30.9423 92.7502 31.0192 92.6849 31.1067 92.6369C31.194 92.5883 31.2902 92.5576 31.3895 92.546C31.4888 92.5345 31.5894 92.5428 31.6854 92.5704C31.7816 92.5979 31.8713 92.644 31.9496 92.706L39.5414 98.7425C39.6651 98.8411 39.7552 98.9748 39.7992 99.1265C39.8432 99.2782 39.8389 99.4401 39.7869 99.5892C39.735 99.7377 39.6379 99.867 39.5092 99.9585C39.3804 100.05 39.2264 100.099 39.0685 100.099H39.0736Z" fill="#101014"/>
<path d="M38.6863 58.8569C38.3479 58.8571 38.0155 58.7669 37.7235 58.5958C37.4316 58.4246 37.1905 58.1787 37.0254 57.8832L33.0241 50.73C32.4478 49.6893 32.2831 48.4701 32.5627 47.3137C32.8424 46.1574 33.5459 45.1482 34.5341 44.4858L52.9979 32.2129C53.9689 31.5654 55.1454 31.3006 56.3002 31.4697C57.4551 31.6388 58.5063 32.2297 59.251 33.1283C59.2928 33.1785 59.3317 33.2309 59.3676 33.2855L65.3963 42.2873C65.5416 42.4946 65.6446 42.7289 65.6984 42.9764C65.7521 43.2238 65.756 43.4796 65.7093 43.7286C65.6632 43.9776 65.5672 44.2148 65.4283 44.4263C65.2888 44.6378 65.1083 44.8194 64.8984 44.9603C64.6878 45.1012 64.4512 45.1988 64.2026 45.2471C63.954 45.2953 63.6982 45.2935 63.4503 45.2416C63.2024 45.1897 62.9674 45.0889 62.759 44.9449C62.5506 44.801 62.373 44.6169 62.2368 44.4034L56.2778 35.5055C56.128 35.3506 55.9287 35.2532 55.7144 35.23C55.5001 35.2068 55.2846 35.2594 55.105 35.3787L36.6387 47.6529C36.4456 47.7825 36.3082 47.9799 36.2538 48.2061C36.1993 48.4322 36.2317 48.6705 36.3446 48.8738L40.3447 56.0309C40.5067 56.3202 40.5903 56.6469 40.5871 56.9786C40.5839 57.3102 40.494 57.6353 40.3264 57.9214C40.1588 58.2077 39.9193 58.445 39.6315 58.61C39.3438 58.7749 39.0179 58.8619 38.6863 58.862V58.8569Z" fill="#101014"/>
<path d="M24.5403 62.7164L76.3361 30.7207C76.882 30.384 77.4893 30.1591 78.1223 30.0591C78.7559 29.9592 79.4029 29.9862 80.0257 30.1384C80.6484 30.2907 81.2353 30.5654 81.7511 30.9463C82.2669 31.3273 82.7015 31.807 83.0305 32.3575L106.687 72.0062C107.016 72.5572 107.233 73.1691 107.323 73.8052C107.413 74.4414 107.376 75.0891 107.213 75.7105C107.05 76.3313 106.765 76.9144 106.375 77.4244C105.985 77.9345 105.496 78.362 104.939 78.6814L52.2938 108.845C51.1969 109.474 49.8975 109.648 48.6738 109.33C47.4501 109.012 46.3993 108.228 45.7465 107.146L22.934 69.3297C22.2763 68.2379 22.0761 66.931 22.3769 65.6926C22.6777 64.4542 23.4552 63.3846 24.5403 62.7164Z" fill="url(#paint0_linear_18354_165809)"/>
<path d="M60.4175 72.0178L61.3753 68.2422L67.2406 78.1467C67.4028 78.4206 67.6671 78.6189 67.9754 78.6979C68.2838 78.7769 68.6108 78.7302 68.8847 78.5681C69.1585 78.4059 69.3567 78.1416 69.4357 77.8332C69.5146 77.5249 69.4678 77.1977 69.3056 76.9238L63.4404 67.0193L67.2116 67.9945C67.3649 68.0345 67.5246 68.0437 67.6815 68.0216C67.8384 67.9995 67.9893 67.9466 68.1256 67.8659C68.2619 67.7852 68.3809 67.6783 68.4757 67.5513C68.5704 67.4244 68.6391 67.2799 68.6778 67.1263C68.7177 66.973 68.7269 66.8132 68.7048 66.6563C68.6827 66.4994 68.6297 66.3485 68.549 66.2121C68.4683 66.0758 68.3613 65.9568 68.2344 65.862C68.1074 65.7672 67.963 65.6984 67.8093 65.6597L61.2328 63.9743C61.0789 63.9384 60.9195 63.9333 60.7636 63.9592C60.4511 64.0048 60.1691 64.1717 59.9789 64.4239C59.8813 64.5481 59.8091 64.6904 59.7666 64.8426L58.0828 71.4195C58.0436 71.5728 58.0349 71.7324 58.0573 71.889C58.0797 72.0457 58.1328 72.1964 58.2134 72.3326C58.294 72.4688 58.4007 72.5878 58.5273 72.6827C58.6539 72.7777 58.798 72.8468 58.9513 72.8861C59.1046 72.9254 59.2641 72.9341 59.4208 72.9117C59.5774 72.8893 59.7281 72.8363 59.8643 72.7557C60.0004 72.6751 60.1193 72.5684 60.2143 72.4418C60.3092 72.3152 60.3783 72.1711 60.4175 72.0178ZM75.7312 68.9339C75.4573 69.096 75.2591 69.3604 75.1802 69.6687C75.1012 69.9771 75.148 70.3042 75.3102 70.5781L78.9798 76.7749C79.142 77.0488 79.1888 77.3759 79.1098 77.6843C79.0309 77.9926 78.8327 78.257 78.5589 78.4191L64.1033 86.9794C63.8295 87.1415 63.5024 87.1882 63.1941 87.1092C62.8857 87.0302 62.6214 86.8319 62.4592 86.558L58.7896 80.3612C58.6274 80.0873 58.363 79.889 58.0547 79.81C57.7464 79.731 57.4193 79.7777 57.1455 79.9399C56.8716 80.102 56.6734 80.3664 56.5945 80.6747C56.5155 80.9831 56.5623 81.3102 56.7245 81.5841L60.3941 87.7809C60.8807 88.6026 61.6738 89.1975 62.5988 89.4345C63.5238 89.6716 64.505 89.5314 65.3265 89.0449L79.782 80.4847C80.6036 79.9982 81.1982 79.2052 81.435 78.2802C81.6718 77.3551 81.5315 76.3737 81.0449 75.552L77.3753 69.3552C77.2131 69.0813 76.9487 68.883 76.6404 68.804C76.3321 68.725 76.005 68.7717 75.7312 68.9339Z" fill="black"/>
<path d="M30.5761 64.8471C30.4171 64.8477 30.262 64.7978 30.1327 64.7056C30.0033 64.6128 29.9062 64.4823 29.855 64.3319C29.8038 64.1808 29.801 64.0183 29.8472 63.866C29.8932 63.7138 29.9859 63.5799 30.1121 63.4831L30.5102 63.1763C30.5889 63.1113 30.6799 63.0627 30.7777 63.0336C30.8755 63.0045 30.9782 62.9953 31.0797 63.0067C31.1811 63.0181 31.2792 63.0498 31.3682 63.0999C31.4571 63.15 31.535 63.2175 31.5974 63.2984C31.6596 63.3792 31.705 63.4718 31.7308 63.5706C31.7566 63.6694 31.7622 63.7723 31.7474 63.8733C31.7325 63.9743 31.6975 64.0714 31.6444 64.1584C31.5913 64.2455 31.5212 64.321 31.4383 64.3805L31.0401 64.689C30.9072 64.7914 30.7441 64.8471 30.5761 64.8471Z" fill="white"/>
<path d="M29.1204 71.4068C28.9893 71.4068 28.8604 71.3729 28.7463 71.3089C28.6321 71.2442 28.5365 71.1514 28.4688 71.0394C28.0511 70.3469 27.7884 69.5719 27.6986 68.7681C27.6089 67.9649 27.6943 67.1514 27.9489 66.3834C28.0125 66.1914 28.1498 66.0321 28.3308 65.9412C28.5117 65.8497 28.7214 65.8343 28.9137 65.8983C29.1061 65.9617 29.2653 66.0986 29.3564 66.2797C29.4474 66.4609 29.4629 66.6708 29.3994 66.8628C29.214 67.4221 29.152 68.0141 29.2177 68.5997C29.2834 69.1847 29.4751 69.7492 29.7797 70.2529C29.8494 70.3687 29.8871 70.5005 29.889 70.6349C29.891 70.77 29.857 70.9031 29.7907 71.0202C29.7244 71.138 29.6282 71.2353 29.5117 71.3031C29.3953 71.3709 29.2629 71.4068 29.128 71.4068H29.1204Z" fill="white"/>
<path d="M42.7833 94.0679C42.6522 94.0679 42.5233 94.034 42.4091 93.97C42.2949 93.9054 42.1993 93.8126 42.1316 93.7006L33.0119 78.5735L30.4762 74.4986C30.3696 74.3271 30.3354 74.1204 30.3812 73.9239C30.427 73.7274 30.5489 73.5572 30.7202 73.451C30.8916 73.3441 31.0982 73.3102 31.2948 73.3556C31.4912 73.4017 31.6615 73.5233 31.7681 73.6948L34.3127 77.7774L43.4413 92.9089C43.5109 93.0247 43.5486 93.1566 43.5506 93.291C43.5525 93.426 43.5186 93.5591 43.4523 93.6762C43.386 93.7934 43.2897 93.8913 43.1733 93.9591C43.0568 94.027 42.9244 94.0628 42.7896 94.0628L42.7833 94.0679Z" fill="white"/>
<path d="M44.6691 97.1862C44.5378 97.1869 44.4087 97.1529 44.2942 97.0889C44.1798 97.0243 44.0841 96.9315 44.0162 96.8189L43.7246 96.3357C43.673 96.2499 43.6387 96.1552 43.6238 96.0566C43.6089 95.9574 43.6135 95.8569 43.6375 95.7597C43.6615 95.663 43.7044 95.5715 43.7637 95.4909C43.8231 95.4109 43.8976 95.3424 43.9832 95.2912C44.0688 95.2394 44.1637 95.2054 44.2625 95.1901C44.3614 95.1753 44.4621 95.1798 44.5591 95.2042C44.6561 95.2278 44.7475 95.2707 44.8279 95.3302C44.9084 95.3898 44.9763 95.464 45.0279 95.5497L45.3195 96.0329C45.3891 96.1481 45.4268 96.28 45.4289 96.4144C45.4309 96.5494 45.3971 96.6819 45.3309 96.7997C45.2647 96.9168 45.1686 97.0141 45.0524 97.0826C44.9361 97.1504 44.8039 97.1862 44.6691 97.1862Z" fill="white"/>
<path d="M45.1772 67.3841C45.126 67.3841 45.0751 67.379 45.025 67.3687L37.1846 65.7738C37.0794 65.7533 36.9799 65.7105 36.8925 65.6484C36.8051 65.5863 36.7318 65.5063 36.6774 65.4142L32.6951 58.6614C32.5927 58.4876 32.5635 58.2801 32.6141 58.0848C32.6646 57.8895 32.7907 57.7222 32.9645 57.6198C33.1383 57.5174 33.3457 57.4883 33.5411 57.5388C33.7364 57.5894 33.9036 57.7154 34.006 57.8893L37.8096 64.3556L44.5673 65.731L45.8453 59.1736L42.0265 52.9066C41.9717 52.8213 41.9344 52.7259 41.917 52.626C41.8995 52.5261 41.9022 52.4238 41.9249 52.3249C41.9476 52.2261 41.9898 52.1327 42.049 52.0504C42.1083 51.9682 42.1834 51.8986 42.27 51.8458C42.3566 51.7929 42.4528 51.758 42.5531 51.7429C42.6534 51.7278 42.7557 51.7329 42.8539 51.7578C42.9522 51.7829 43.0445 51.8273 43.1253 51.8885C43.2062 51.9496 43.274 52.0264 43.3248 52.1142L47.2983 58.6335C47.3972 58.7955 47.432 58.9886 47.3959 59.1749L45.9137 66.7741C45.88 66.9476 45.787 67.1038 45.6507 67.2158C45.5145 67.3278 45.3435 67.3892 45.167 67.3892L45.1772 67.3841Z" fill="#101014"/>
<path d="M70.3795 52.0709H70.3174L62.732 51.4598C62.6127 51.4502 62.4973 51.4125 62.3954 51.35C62.2934 51.2874 62.2075 51.2017 62.145 51.0998L57.4298 43.4254C57.3309 43.2538 57.3028 43.0504 57.3515 42.8584C57.4001 42.6664 57.5218 42.501 57.6906 42.3973C57.8593 42.2936 58.0618 42.2598 58.2551 42.3032C58.4484 42.3464 58.6172 42.4634 58.7255 42.6292L63.2391 49.9739L69.7049 50.495L70.3795 44.5361L65.9423 38.2246C65.8259 38.0595 65.7804 37.855 65.815 37.6562C65.8495 37.4573 65.9615 37.2802 66.1267 37.1641C66.2918 37.0479 66.4959 37.002 66.695 37.0367C66.894 37.0713 67.0713 37.1835 67.1871 37.3485L71.7919 43.897C71.8995 44.0489 71.9468 44.2347 71.9263 44.4194L71.1366 51.3926C71.1161 51.5791 71.0278 51.7515 70.8883 51.8767C70.7481 52.0019 70.567 52.0711 70.3795 52.0709Z" fill="#101014"/>
<path d="M66.5375 48.6124C66.1048 48.6122 65.6818 48.4878 65.3177 48.2542C64.9541 48.0206 64.6649 47.6875 64.4848 47.2944C64.3046 46.9013 64.241 46.4648 64.3016 46.0367C64.3621 45.6085 64.5445 45.2068 64.8261 44.8791C65.1084 44.5514 65.4789 44.3115 65.893 44.1879C66.3071 44.0644 66.7487 44.0624 67.1641 44.182C67.5794 44.3017 67.9519 44.5381 68.2373 44.8632C68.5221 45.1882 68.7084 45.5882 68.7724 46.0158C68.8607 46.6088 68.7103 47.2125 68.3538 47.6944C67.9967 48.1763 67.4636 48.4968 66.8709 48.5857C66.7602 48.6026 66.6488 48.6115 66.5375 48.6124ZM66.5375 45.6139C66.5004 45.614 66.4639 45.6165 66.4268 45.6215C66.2367 45.649 66.0645 45.7491 65.9468 45.9009C65.8284 46.0527 65.774 46.2444 65.7945 46.4355C65.8149 46.6267 65.9084 46.8026 66.0556 46.9261C66.2028 47.0497 66.3928 47.1113 66.5842 47.0981C66.7762 47.0848 66.9554 46.9978 67.0841 46.8552C67.2133 46.7126 67.2818 46.5255 67.2761 46.3334C67.2697 46.1412 67.1897 45.9589 67.0514 45.8247C66.9138 45.6906 66.7295 45.615 66.5375 45.6139Z" fill="#101014"/>
<path d="M41.9115 63.921C41.4791 63.9206 41.0558 63.7961 40.692 63.5623C40.3282 63.3284 40.0391 62.9951 39.8592 62.6018C39.6793 62.2086 39.6159 61.7719 39.6768 61.3438C39.7376 60.9156 39.9201 60.514 40.2025 60.1864C40.4849 59.8588 40.8553 59.6192 41.2699 59.496C41.6844 59.3728 42.1256 59.3711 42.5411 59.4912C42.9565 59.6114 43.3288 59.8482 43.6136 60.1735C43.8985 60.499 44.0839 60.8993 44.148 61.3269C44.2363 61.9199 44.0856 62.5236 43.729 63.0055C43.3724 63.4874 42.8391 63.808 42.2462 63.8969C42.1354 63.913 42.0235 63.921 41.9115 63.921ZM41.9115 60.9238C41.8746 60.9238 41.8377 60.9264 41.8012 60.9314C41.6112 60.9588 41.4393 61.0588 41.3216 61.2104C41.2038 61.362 41.1494 61.5532 41.1697 61.7441C41.1901 61.9349 41.2836 62.1104 41.4306 62.2338C41.5777 62.3571 41.7668 62.4186 41.9583 62.4054C42.1497 62.3922 42.3286 62.3053 42.4574 62.163C42.5861 62.0206 42.6546 61.8339 42.6486 61.6421C42.6425 61.4503 42.5623 61.2683 42.4249 61.1343C42.2875 61.0004 42.1035 60.9249 41.9115 60.9238Z" fill="#101014"/>
<path d="M120.842 73.9081C120.65 73.9132 120.464 73.8454 120.32 73.7193C120.176 73.5932 120.084 73.4166 120.065 73.2265C120.045 73.0358 120.098 72.8444 120.212 72.6915C120.328 72.5379 120.496 72.4336 120.685 72.399L121.349 72.2518C121.446 72.2307 121.548 72.2288 121.645 72.246C121.744 72.2633 121.838 72.3004 121.922 72.3542C122.006 72.408 122.079 72.4777 122.136 72.5596C122.193 72.6416 122.234 72.7337 122.255 72.8316C122.277 72.9289 122.279 73.03 122.262 73.128C122.244 73.2265 122.207 73.3206 122.154 73.4044C122.1 73.4889 122.03 73.5619 121.948 73.6188C121.866 73.6758 121.773 73.7168 121.676 73.7379L121.012 73.8838C120.956 73.8985 120.899 73.9068 120.842 73.9081Z" fill="#101014"/>
<path d="M111.521 75.9571C111.333 75.9571 111.152 75.888 111.013 75.7626C110.873 75.6378 110.785 75.465 110.764 75.2787C110.744 75.0925 110.793 74.905 110.903 74.7527C111.012 74.6003 111.174 74.4935 111.357 74.4538L118.012 72.9863C118.209 72.9434 118.416 72.9799 118.585 73.0887C118.755 73.1975 118.875 73.369 118.919 73.5661C118.962 73.7632 118.926 73.9693 118.817 74.1395C118.708 74.3091 118.536 74.4288 118.339 74.4723L111.684 75.9367C111.631 75.9501 111.576 75.9565 111.521 75.9571Z" fill="#101014"/>
<path d="M110.111 78.9229C109.909 78.9293 109.713 78.8556 109.565 78.718C109.417 78.5798 109.331 78.3891 109.325 78.1875C109.318 77.9853 109.391 77.7894 109.529 77.6422C109.667 77.4944 109.858 77.408 110.06 77.4009L117.685 76.8864C117.785 76.88 117.885 76.8928 117.979 76.9248C118.075 76.9568 118.162 77.0073 118.237 77.0732C118.313 77.1392 118.374 77.2192 118.419 77.3094C118.463 77.399 118.489 77.4963 118.496 77.5968C118.503 77.6966 118.489 77.7965 118.457 77.8912C118.425 77.9865 118.375 78.0736 118.309 78.1491C118.243 78.2246 118.163 78.2861 118.073 78.3309C117.984 78.375 117.886 78.4012 117.786 78.4076L110.161 78.9216L110.111 78.9229Z" fill="#101014"/>
<path d="M7.55081 95.9462C7.34908 95.9533 7.15267 95.8803 7.00476 95.7433C6.85687 95.6057 6.76963 95.415 6.76223 95.2134C6.75484 95.0118 6.82789 94.8153 6.96534 94.6675C7.10275 94.5197 7.29328 94.432 7.49507 94.4249L15.3 93.8438C15.5017 93.8291 15.7011 93.895 15.8544 94.0269C16.0076 94.1593 16.1022 94.3469 16.1171 94.5485C16.1321 94.7501 16.0663 94.9497 15.9342 95.1027C15.8021 95.2563 15.6146 95.3504 15.4128 95.3657L7.6079 95.9462H7.55081Z" fill="#101014"/>
<path d="M17.8946 95.178C17.6929 95.1857 17.4964 95.1127 17.3485 94.9751C17.2006 94.8375 17.1134 94.6474 17.106 94.4452C17.0986 94.2436 17.1716 94.0471 17.3091 93.8993C17.4465 93.7515 17.637 93.6644 17.8388 93.6567L18.1621 93.633C18.3639 93.6177 18.5633 93.6836 18.7165 93.8154C18.8698 93.9479 18.9643 94.1354 18.9793 94.337C18.9942 94.5386 18.9284 94.7383 18.7963 94.8913C18.6642 95.0449 18.4767 95.139 18.2749 95.1543L17.9517 95.178H17.8946Z" fill="#101014"/>
<path d="M11.1561 100.098C10.9758 100.098 10.8013 100.034 10.6637 99.9179C10.5261 99.8014 10.4343 99.6401 10.4048 99.4622C10.3753 99.2843 10.4098 99.1019 10.5024 98.947C10.595 98.7921 10.7394 98.6756 10.9101 98.6174L16.6763 96.6545C16.7714 96.6206 16.8724 96.6052 16.9734 96.6103C17.0743 96.6155 17.1733 96.6411 17.2644 96.6846C17.3555 96.7287 17.437 96.7902 17.504 96.8657C17.571 96.9412 17.6223 97.0295 17.6548 97.1255C17.6874 97.2215 17.7005 97.3227 17.6934 97.4231C17.6864 97.5243 17.6593 97.6228 17.6137 97.7131C17.5682 97.8033 17.5051 97.8833 17.4282 97.9492C17.3513 98.0145 17.262 98.0644 17.1657 98.0951L11.397 100.057C11.3193 100.084 11.238 100.097 11.1561 100.098Z" fill="#101014"/>
<path d="M81.2751 23.4169C81.1516 23.417 81.03 23.3869 80.9205 23.3293C80.8111 23.2717 80.717 23.1883 80.6473 23.0863C80.5769 22.9842 80.5334 22.8666 80.5186 22.7437C80.5046 22.6209 80.5206 22.4964 80.5654 22.3811L84.0367 13.4134C84.1097 13.2253 84.2543 13.0739 84.4393 12.9924C84.6236 12.911 84.8329 12.9062 85.021 12.9792C85.2092 13.0522 85.3609 13.1969 85.4421 13.3816C85.5234 13.5661 85.5286 13.7756 85.4556 13.9637L81.9855 22.93C81.9298 23.0734 81.8325 23.1966 81.7058 23.2835C81.5791 23.3704 81.4293 23.4169 81.2751 23.4169Z" fill="#101014"/>
<path d="M77.4192 25.2487C77.2176 25.2487 77.0236 25.1686 76.8816 25.0259C76.7388 24.8832 76.6582 24.6898 76.6582 24.488V17.6416C76.6582 17.4398 76.7388 17.2463 76.8816 17.1036C77.0236 16.961 77.2176 16.8809 77.4192 16.8809C77.6208 16.8809 77.8147 16.961 77.9568 17.1036C78.0995 17.2463 78.1801 17.4398 78.1801 17.6416V24.488C78.1801 24.6898 78.0995 24.8832 77.9568 25.0259C77.8147 25.1686 77.6208 25.2487 77.4192 25.2487Z" fill="#101014"/>
<defs>
<linearGradient id="paint0_linear_18354_165809" x1="22.2402" y1="63.0587" x2="109.064" y2="63.0587" gradientUnits="userSpaceOnUse">
<stop stop-color="#DF1B3F"/>
<stop offset="1" stop-color="#E95048"/>
</linearGradient>
</defs>
</svg>
