<svg width="84" height="28" viewBox="0 0 84 28" fill="none" xmlns="http://www.w3.org/2000/svg">
<path d="M18.9641 25.018V27.0781H0V25.018H8.3577V20.6335H10.5582V25.018H18.9641ZM0.535407 21.0811V19.0426C4.51348 18.7298 7.6938 16.4918 8.33629 13.1104H1.02263V11.0719H8.29345V8.62891H10.5582V11.0719H17.9147V13.1104H10.6707C10.5632 13.8051 10.3837 14.4865 10.1353 15.1435L18.4287 19.3554L17.4703 21.1674L9.18223 16.8531C7.40468 19.3338 4.24578 20.8546 0.535407 21.0811Z" fill="url(#paint0_linear_3770_25607)"/>
<path d="M28.8753 19.6897H22.0488V9.34614H33.635V11.2714H24.2761V17.7429H29.0091C31.5898 17.7429 33.7689 17.4517 34.9896 16.9178V18.8215C33.8331 19.3554 31.5898 19.6897 28.8753 19.6897ZM24.9186 25.7352H39.0855V27.7521H22.6967V21.5719H24.9186V25.7352ZM41.2271 13.4232V15.548H38.5501V23.0981H36.3656V8.87695H38.5501V13.4232H41.2271Z" fill="url(#paint1_linear_3770_25607)"/>
<path d="M48.7223 17.991C45.2582 17.991 42.9238 16.1304 42.9238 13.5364C42.9238 10.9424 45.2582 9.07649 48.7223 9.07649C52.1864 9.07649 54.5047 10.937 54.5047 13.5364C54.5047 16.1358 52.1917 17.991 48.7223 17.991ZM46.5003 26.0048H60.4209V27.7521H44.3212V22.6936H57.7707V21.0326H44.2784V19.2907H59.9658V24.3492H46.5003V26.0048ZM48.7223 16.179C50.8639 16.179 52.3256 15.1004 52.3256 13.5149C52.3256 11.9293 50.8586 10.8184 48.7223 10.8184C46.586 10.8184 45.1029 11.897 45.1029 13.5149C45.1029 15.1327 46.5807 16.179 48.7223 16.179ZM62.6429 12.2799V14.3184H59.9658V18.2121H57.7653V8.87695H59.9658V12.3015L62.6429 12.2799Z" fill="#251E3D"/>
<path d="M73.4201 9.43782H75.5992V26.8569H65.041V9.43782H67.2148V16.0172H73.4201V9.43782ZM73.4201 24.8184V18.0557H67.2148V24.8076L73.4201 24.8184ZM83.9998 18.7514H81.3227V28.0002H79.1329V8.87695H81.3334V16.6212H84.0105L83.9998 18.7514Z" fill="#251E3D"/>
<path d="M30.7744 2.48004L30.587 3.55862H31.2402V4.47542H30.421L30.1694 5.87218H29.1628L29.4145 4.47542H28.6167L28.3758 5.87218H27.3585L27.6102 4.47542H26.9355V3.56402H27.7761L27.9635 2.48543H27.305V1.57403H28.1241L28.3758 0.171875H29.3824L29.1307 1.57403H29.9285L30.1801 0.171875H31.1867L30.935 1.57403H31.6096V2.48004H30.7744ZM29.7678 2.48004H28.9701L28.7827 3.55862H29.5805L29.7678 2.48004Z" fill="#040000"/>
<path d="M34.3258 5.87218H33.0676V1.27742H32.0664V0.171875H34.3258V5.87218Z" fill="#040000"/>
<path d="M38.1536 5.69499H35.4766V4.58944H38.1536C38.6742 4.60661 39.1934 4.52614 39.6849 4.35215V5.43074C39.1947 5.6121 38.6757 5.70166 38.1536 5.69499ZM39.4439 1.97927C39.4576 2.23815 39.4188 2.49713 39.3298 2.7404C39.2409 2.98368 39.1037 3.20616 38.9266 3.39428C38.7495 3.58241 38.5362 3.73223 38.2998 3.83461C38.0633 3.93699 37.8086 3.9898 37.5513 3.9898C37.2939 3.9898 37.0392 3.93699 36.8027 3.83461C36.5663 3.73223 36.353 3.58241 36.1759 3.39428C35.9988 3.20616 35.8616 2.98368 35.7727 2.7404C35.6837 2.49713 35.6449 2.23815 35.6586 1.97927C35.6449 1.72039 35.6837 1.46142 35.7727 1.21814C35.8616 0.974865 35.9988 0.752383 36.1759 0.564261C36.353 0.376139 36.5663 0.226318 36.8027 0.123935C37.0392 0.0215515 37.2939 -0.03125 37.5513 -0.03125C37.8086 -0.03125 38.0633 0.0215515 38.2998 0.123935C38.5362 0.226318 38.7495 0.376139 38.9266 0.564261C39.1037 0.752383 39.2409 0.974865 39.3298 1.21814C39.4188 1.46142 39.4576 1.72039 39.4439 1.97927ZM36.7669 1.97927C36.7541 2.0882 36.7643 2.19863 36.797 2.30329C36.8296 2.40794 36.8838 2.50445 36.9562 2.58645C37.0285 2.66845 37.1173 2.73408 37.2166 2.77903C37.316 2.82398 37.4236 2.84721 37.5325 2.84721C37.6414 2.84721 37.7491 2.82398 37.8484 2.77903C37.9478 2.73408 38.0365 2.66845 38.1089 2.58645C38.1812 2.50445 38.2355 2.40794 38.2681 2.30329C38.3007 2.19863 38.311 2.0882 38.2982 1.97927C38.311 1.87034 38.3007 1.75991 38.2681 1.65526C38.2355 1.5506 38.1812 1.4541 38.1089 1.3721C38.0365 1.2901 37.9478 1.22446 37.8484 1.17952C37.7491 1.13457 37.6414 1.11133 37.5325 1.11133C37.4236 1.11133 37.316 1.13457 37.2166 1.17952C37.1173 1.22446 37.0285 1.2901 36.9562 1.3721C36.8838 1.4541 36.8296 1.5506 36.797 1.65526C36.7643 1.75991 36.7541 1.87034 36.7669 1.97927ZM41.2268 5.97003H40.0757V7.3351e-05H41.2268V5.97003Z" fill="#040000"/>
<path d="M46.7671 2.54006L48.5233 4.99923L47.5703 5.68413L46.3495 3.90447C45.8516 5.04777 45.086 5.68413 44.1758 5.69492V4.47612C45.1288 4.36287 45.782 2.61556 45.782 0.118644L46.9974 0.161787C47.002 0.960409 46.9249 1.75738 46.7671 2.54006ZM49.8564 0V5.96995H48.6839V0H49.8564Z" fill="#040000"/>
<path d="M50.8633 3.46764V2.38906C51.2098 2.36256 51.5371 2.21855 51.7918 1.98055C52.0466 1.74254 52.2138 1.42459 52.266 1.07858H50.9543V0.0701079H54.7021V1.07858H53.4546C53.4386 1.24672 53.4063 1.41289 53.3583 1.57473L54.9645 2.57781L54.3595 3.43528L52.8711 2.46995C52.6277 2.77237 52.3223 3.01814 51.9757 3.19036C51.6291 3.36258 51.2496 3.45718 50.8633 3.46764ZM51.0989 3.76425H56.3619V6.04006H55.168V4.77812H51.0989V3.76425ZM57.0579 2.14638H56.3619V3.55393H55.1894V0H56.3619V1.03544H57.0579V2.14638Z" fill="#040000"/>
<defs>
<linearGradient id="paint0_linear_3770_25607" x1="9.48206" y1="4.9024" x2="9.48206" y2="27.4448" gradientUnits="userSpaceOnUse">
<stop stop-color="#E95147"/>
<stop offset="1" stop-color="#DE143D"/>
</linearGradient>
<linearGradient id="paint1_linear_3770_25607" x1="31.6433" y1="4.90238" x2="31.6433" y2="27.4448" gradientUnits="userSpaceOnUse">
<stop stop-color="#E95147"/>
<stop offset="1" stop-color="#DE143D"/>
</linearGradient>
</defs>
</svg>
