<svg width="333" height="17" viewBox="0 0 333 17" fill="none" xmlns="http://www.w3.org/2000/svg">
<rect x="7" width="1" height="4" rx="0.5" fill="#A4A4A4"/>
<path d="M2.34 15.93H1.49V9.78L0.69 10.05L0.41 9.24L1.49 8.85H2.34V15.93ZM4.95031 13.44L7.18031 10.89H8.29031L6.31031 13.16L8.33031 16.04H7.29031L5.74031 13.79L4.95031 14.72V16.04H4.07031V8.54H4.95031V13.44ZM16.1995 12.98C16.1995 12.78 16.1429 12.5867 16.0295 12.4C15.9229 12.2133 15.7795 12.0667 15.5995 11.96C15.4195 11.8467 15.2295 11.79 15.0295 11.79C14.6829 11.79 14.3795 11.9 14.1195 12.12C13.8662 12.3333 13.7395 12.62 13.7395 12.98V16.03H12.8695V12.98C12.8695 12.6467 12.7695 12.3667 12.5695 12.14C12.3695 11.9133 12.0862 11.8 11.7195 11.8C11.4729 11.8 11.2495 11.86 11.0495 11.98C10.8562 12.0933 10.7029 12.2467 10.5895 12.44C10.4762 12.6267 10.4195 12.8267 10.4195 13.04V16.03H9.53953V10.88H10.4195V11.74C10.5729 11.4667 10.7629 11.2567 10.9895 11.11C11.2229 10.9567 11.4862 10.88 11.7795 10.88C12.1529 10.88 12.4662 10.9667 12.7195 11.14C12.9795 11.3067 13.2029 11.5633 13.3895 11.91C13.6095 11.6033 13.8529 11.3567 14.1195 11.17C14.3862 10.9767 14.7062 10.88 15.0795 10.88C15.4262 10.88 15.7529 10.9667 16.0595 11.14C16.3662 11.3133 16.6129 11.5533 16.7995 11.86C16.9862 12.1667 17.0795 12.5133 17.0795 12.9V16.03H16.1995V12.98Z" fill="#E95048"/>
<rect x="165" width="1" height="4" rx="0.5" fill="#A4A4A4"/>
<path d="M160.557 12.27C160.877 12.4567 161.141 12.6967 161.347 12.99C161.561 13.2833 161.667 13.5967 161.667 13.93C161.667 14.3167 161.561 14.6667 161.347 14.98C161.134 15.2933 160.844 15.54 160.477 15.72C160.117 15.8933 159.717 15.98 159.277 15.98C158.837 15.98 158.434 15.8933 158.067 15.72C157.707 15.54 157.421 15.2933 157.207 14.98C156.994 14.66 156.887 14.3 156.887 13.9H157.767C157.767 14.1067 157.827 14.3067 157.947 14.5C158.074 14.6867 158.251 14.84 158.477 14.96C158.711 15.08 158.977 15.14 159.277 15.14C159.584 15.14 159.854 15.0833 160.087 14.97C160.321 14.85 160.501 14.6933 160.627 14.5C160.761 14.3067 160.827 14.1067 160.827 13.9C160.827 13.5533 160.701 13.2633 160.447 13.03C160.194 12.79 159.811 12.67 159.297 12.67H158.767V11.85H159.297C159.744 11.85 160.094 11.7433 160.347 11.53C160.601 11.31 160.727 11.0467 160.727 10.74C160.727 10.56 160.667 10.3833 160.547 10.21C160.434 10.0367 160.271 9.89667 160.057 9.79C159.851 9.68333 159.611 9.63 159.337 9.63C159.064 9.63 158.821 9.68333 158.607 9.79C158.401 9.89667 158.241 10.0367 158.127 10.21C158.021 10.3767 157.967 10.5567 157.967 10.75H157.097C157.097 10.3767 157.197 10.0433 157.397 9.75C157.597 9.45 157.867 9.21667 158.207 9.05C158.554 8.88333 158.931 8.8 159.337 8.8C159.744 8.8 160.117 8.88333 160.457 9.05C160.797 9.21667 161.067 9.44667 161.267 9.74C161.467 10.0333 161.567 10.36 161.567 10.72C161.567 11.0267 161.474 11.3167 161.287 11.59C161.101 11.8567 160.857 12.0833 160.557 12.27ZM163.779 13.44L166.009 10.89H167.119L165.139 13.16L167.159 16.04H166.119L164.569 13.79L163.779 14.72V16.04H162.899V8.54H163.779V13.44ZM175.029 12.98C175.029 12.78 174.972 12.5867 174.859 12.4C174.752 12.2133 174.609 12.0667 174.429 11.96C174.249 11.8467 174.059 11.79 173.859 11.79C173.512 11.79 173.209 11.9 172.949 12.12C172.695 12.3333 172.569 12.62 172.569 12.98V16.03H171.699V12.98C171.699 12.6467 171.599 12.3667 171.399 12.14C171.199 11.9133 170.915 11.8 170.549 11.8C170.302 11.8 170.079 11.86 169.879 11.98C169.685 12.0933 169.532 12.2467 169.419 12.44C169.305 12.6267 169.249 12.8267 169.249 13.04V16.03H168.369V10.88H169.249V11.74C169.402 11.4667 169.592 11.2567 169.819 11.11C170.052 10.9567 170.315 10.88 170.609 10.88C170.982 10.88 171.295 10.9667 171.549 11.14C171.809 11.3067 172.032 11.5633 172.219 11.91C172.439 11.6033 172.682 11.3567 172.949 11.17C173.215 10.9767 173.535 10.88 173.909 10.88C174.255 10.88 174.582 10.9667 174.889 11.14C175.195 11.3133 175.442 11.5533 175.629 11.86C175.815 12.1667 175.909 12.5133 175.909 12.9V16.03H175.029V12.98Z" fill="#E95048"/>
<rect x="323" width="1" height="4" rx="0.5" fill="#A4A4A4"/>
<path d="M314.202 12.64L314.342 8.92H318.182V9.8H315.202L315.132 11.54C315.479 11.36 315.849 11.27 316.242 11.27C316.676 11.27 317.076 11.3767 317.442 11.59C317.816 11.8033 318.112 12.0933 318.332 12.46C318.552 12.82 318.662 13.22 318.662 13.66C318.662 14.0933 318.552 14.4933 318.332 14.86C318.112 15.22 317.816 15.5067 317.442 15.72C317.076 15.9333 316.676 16.04 316.242 16.04C315.876 16.04 315.526 15.96 315.192 15.8C314.866 15.64 314.586 15.42 314.352 15.14C314.126 14.86 313.972 14.5433 313.892 14.19L314.752 13.99C314.839 14.35 315.012 14.6367 315.272 14.85C315.539 15.0567 315.862 15.16 316.242 15.16C316.689 15.16 317.056 15.02 317.342 14.74C317.636 14.46 317.782 14.1 317.782 13.66C317.782 13.2133 317.636 12.85 317.342 12.57C317.056 12.29 316.689 12.15 316.242 12.15C315.769 12.15 315.386 12.3233 315.092 12.67L315.082 12.66V12.68L314.202 12.64ZM320.784 13.44L323.014 10.89H324.124L322.144 13.16L324.164 16.04H323.124L321.574 13.79L320.784 14.72V16.04H319.904V8.54H320.784V13.44ZM332.034 12.98C332.034 12.78 331.977 12.5867 331.864 12.4C331.757 12.2133 331.614 12.0667 331.434 11.96C331.254 11.8467 331.064 11.79 330.864 11.79C330.517 11.79 330.214 11.9 329.954 12.12C329.7 12.3333 329.574 12.62 329.574 12.98V16.03H328.704V12.98C328.704 12.6467 328.604 12.3667 328.404 12.14C328.204 11.9133 327.92 11.8 327.554 11.8C327.307 11.8 327.084 11.86 326.884 11.98C326.69 12.0933 326.537 12.2467 326.424 12.44C326.31 12.6267 326.254 12.8267 326.254 13.04V16.03H325.374V10.88H326.254V11.74C326.407 11.4667 326.597 11.2567 326.824 11.11C327.057 10.9567 327.32 10.88 327.614 10.88C327.987 10.88 328.3 10.9667 328.554 11.14C328.814 11.3067 329.037 11.5633 329.224 11.91C329.444 11.6033 329.687 11.3567 329.954 11.17C330.22 10.9767 330.54 10.88 330.914 10.88C331.26 10.88 331.587 10.9667 331.894 11.14C332.2 11.3133 332.447 11.5533 332.634 11.86C332.82 12.1667 332.914 12.5133 332.914 12.9V16.03H332.034V12.98Z" fill="#E95048"/>
<path d="M7 1H324V-1H7V1Z" fill="#A4A4A4" mask="url(#path-1-inside-1_18707_1339)"/>
</svg>
