<svg width="1024" height="1024" viewBox="0 0 1024 1024" fill="none" xmlns="http://www.w3.org/2000/svg">
<rect width="1024" height="1024" rx="192" fill="url(#paint0_linear_16137_163452)"/>
<path d="M322.07 288.188L460.323 359.75L476.258 329.716L338.004 260.017C342.087 249.257 345.05 238.138 346.912 226.268H467.736V192.528H345.05V152.119H307.246V192.528H186.046V226.268H307.989C297.237 282.253 244.233 319.341 177.891 324.524V358.273C239.784 354.558 292.421 329.34 322.07 288.188Z" fill="white"/>
<path d="M810.397 152H773.703V387.068H810.397V262.494H854.87V227.259H810.397V152Z" fill="white"/>
<path d="M345.057 350.849H308.363V423.52H169V457.627H485.164V423.52H345.057V350.849Z" fill="white"/>
<path d="M584.483 366.05H547.422V468.746H820.589V435.382H584.483V366.05Z" fill="white"/>
<path d="M752.382 321.191V289.68C731.999 298.578 695.672 303.395 652.676 303.395H573.729V195.873H729.779V163.986H536.668V335.281H650.456C695.305 335.281 733.109 329.722 752.382 321.191Z" fill="white"/>
<path d="M498.677 611.243V644.973H454.204V709.499H417.51V554.514H454.204V611.243H498.677ZM267.019 675.75C302.603 675.75 327.069 658.33 327.069 631.635C327.069 604.941 302.603 587.511 267.019 587.511C231.436 587.511 206.603 604.941 206.603 631.635C206.603 658.33 231.436 675.75 267.019 675.75ZM229.959 838.147H461.983V867.07H193.632V783.28H417.877V755.843H192.889V726.919H454.204V810.709H229.959V838.147ZM267.019 705.417C209.199 705.417 170.285 674.64 170.285 631.635C170.285 588.621 209.199 557.853 267.019 557.853C324.84 557.853 363.387 588.621 363.387 631.635C363.387 674.64 324.84 705.417 267.019 705.417Z" fill="#2D3747"/>
<path d="M855.246 718.028H810.772V871.15H774.079V554.521H810.772V682.802H855.246V718.028ZM678.821 706.525H575.409V818.504H678.821V706.525ZM678.821 563.787H715.139V852.244H539.082V563.787H575.409V672.794H678.821V563.787Z" fill="#2D3747"/>
<defs>
<linearGradient id="paint0_linear_16137_163452" x1="1024" y1="1.92691e-06" x2="1.92691e-06" y2="1024" gradientUnits="userSpaceOnUse">
<stop stop-color="#EA5248"/>
<stop offset="0.037638" stop-color="#EA5248"/>
<stop offset="1" stop-color="#DF183E"/>
</linearGradient>
</defs>
</svg>
