<svg width="121" height="40" viewBox="0 0 121 40" fill="none" xmlns="http://www.w3.org/2000/svg">
<g clip-path="url(#clip0_472_94496)">
<path d="M27.3526 35.7411V38.6841H0.0644531V35.7411H12.0906V29.4776H15.2571V35.7411H27.3526ZM0.834869 30.117V27.2049C6.55906 26.758 11.1353 23.5608 12.0598 18.7303H1.53595V15.8181H11.9982V12.3281H15.2571V15.8181H25.8426V18.7303H15.4188C15.2642 19.7227 15.006 20.6962 14.6484 21.6348L26.5822 27.6517L25.2031 30.2403L13.2771 24.077C10.7193 27.6209 6.17385 29.7935 0.834869 30.117Z" fill="url(#paint0_linear_472_94496)"/>
<path d="M41.6119 28.1285H31.7891V13.3519H48.4609V16.1023H34.994V25.3473H41.8045C45.5179 25.3473 48.6535 24.9313 50.41 24.1685V26.8881C48.7459 27.6508 45.5179 28.1285 41.6119 28.1285ZM35.9185 36.7648H56.3037V39.6462H32.7213V30.8172H35.9185V36.7648ZM59.3854 19.1762V22.2117H55.5333V32.9975H52.39V12.6816H55.5333V19.1762H59.3854Z" fill="url(#paint1_linear_472_94496)"/>
<path d="M70.1737 25.7017C65.1891 25.7017 61.8301 23.0437 61.8301 19.338C61.8301 15.6323 65.1891 12.9667 70.1737 12.9667C75.1583 12.9667 78.4942 15.6246 78.4942 19.338C78.4942 23.0514 75.166 25.7017 70.1737 25.7017ZM66.9765 37.1501H87.0073V39.6462H63.8409V32.4197H83.1937V30.0468H63.7792V27.5584H86.3524V34.7849H66.9765V37.1501ZM70.1737 23.1131C73.2554 23.1131 75.3586 21.5722 75.3586 19.3072C75.3586 17.0422 73.2476 15.4551 70.1737 15.4551C67.0997 15.4551 64.9657 16.996 64.9657 19.3072C64.9657 21.6185 67.092 23.1131 70.1737 23.1131ZM90.2045 17.543V20.4551H86.3524V26.0175H83.186V12.6816H86.3524V17.5738L90.2045 17.543Z" fill="#251E3D"/>
<path d="M105.711 13.4829H108.847V38.3673H93.6543V13.4829H96.7822V22.882H105.711V13.4829ZM105.711 35.4551V25.7941H96.7822V35.4397L105.711 35.4551ZM120.935 26.788H117.083V40.0006H113.932V12.6816H117.098V23.7448H120.95L120.935 26.788Z" fill="#251E3D"/>
<path d="M44.3501 3.54347L44.0804 5.08431H45.0203V6.39401H43.8416L43.4795 8.38939H42.0311L42.3932 6.39401H41.2453L40.8986 8.38939H39.4348L39.7969 6.39401H38.8262V5.09201H40.0357L40.3054 3.55118H39.3578V2.24918H40.5365L40.8986 0.246094H42.347L41.9849 2.24918H43.1328L43.4949 0.246094H44.9433L44.5812 2.24918H45.5519V3.54347H44.3501ZM42.9017 3.54347H41.7538L41.4841 5.08431H42.632L42.9017 3.54347Z" fill="#040000"/>
<path d="M49.4562 8.38939H47.6458V1.82545H46.2051V0.246094H49.4562V8.38939Z" fill="#040000"/>
<path d="M54.9654 8.13542H51.1133V6.55607H54.9654C55.7145 6.58059 56.4616 6.46564 57.1688 6.21708V7.75792C56.4634 8.01701 55.7167 8.14495 54.9654 8.13542ZM56.8221 2.82725C56.8417 3.19708 56.7859 3.56705 56.6579 3.91458C56.5299 4.26212 56.3325 4.57995 56.0777 4.8487C55.8229 5.11744 55.516 5.33147 55.1757 5.47774C54.8355 5.624 54.469 5.69943 54.0986 5.69943C53.7283 5.69943 53.3618 5.624 53.0216 5.47774C52.6813 5.33147 52.3744 5.11744 52.1196 4.8487C51.8648 4.57995 51.6674 4.26212 51.5394 3.91458C51.4114 3.56705 51.3555 3.19708 51.3752 2.82725C51.3555 2.45742 51.4114 2.08746 51.5394 1.73992C51.6674 1.39238 51.8648 1.07455 52.1196 0.805808C52.3744 0.537062 52.6813 0.323033 53.0216 0.176771C53.3618 0.0305088 53.7283 -0.0449219 54.0986 -0.0449219C54.469 -0.0449219 54.8355 0.0305088 55.1757 0.176771C55.516 0.323033 55.8229 0.537062 56.0777 0.805808C56.3325 1.07455 56.5299 1.39238 56.6579 1.73992C56.7859 2.08746 56.8417 2.45742 56.8221 2.82725ZM52.97 2.82725C52.9515 2.98287 52.9663 3.14062 53.0132 3.29013C53.0602 3.43964 53.1383 3.5775 53.2424 3.69465C53.3464 3.81179 53.4742 3.90555 53.6171 3.96976C53.76 4.03397 53.915 4.06717 54.0717 4.06717C54.2284 4.06717 54.3833 4.03397 54.5263 3.96976C54.6692 3.90555 54.7969 3.81179 54.901 3.69465C55.0051 3.5775 55.0832 3.43964 55.1301 3.29013C55.1771 3.14062 55.1918 2.98287 55.1734 2.82725C55.1918 2.67164 55.1771 2.51388 55.1301 2.36437C55.0832 2.21487 55.0051 2.077 54.901 1.95986C54.7969 1.84272 54.6692 1.74895 54.5263 1.68474C54.3833 1.62053 54.2284 1.58734 54.0717 1.58734C53.915 1.58734 53.76 1.62053 53.6171 1.68474C53.4742 1.74895 53.3464 1.84272 53.2424 1.95986C53.1383 2.077 53.0602 2.21487 53.0132 2.36437C52.9663 2.51388 52.9515 2.67164 52.97 2.82725ZM59.3875 8.52833H57.7312V-0.000174239H59.3875V8.52833Z" fill="#040000"/>
<path d="M67.3597 3.63061L69.8866 7.14371L68.5153 8.12214L66.7587 5.57976C66.0423 7.21305 64.9406 8.12214 63.6309 8.13755V6.39641C65.0022 6.23462 65.9421 3.73847 65.9421 0.171445L67.691 0.233078C67.6976 1.37397 67.5866 2.5125 67.3597 3.63061ZM71.805 0.00195312V8.53046H70.1178V0.00195312H71.805Z" fill="#040000"/>
<path d="M73.2539 4.95573V3.4149C73.7525 3.37703 74.2235 3.17131 74.5901 2.83131C74.9566 2.4913 75.1972 2.03709 75.2724 1.54279H73.3849V0.102107H78.7778V1.54279H76.9827C76.9596 1.78298 76.9131 2.02036 76.844 2.25157L79.1553 3.68454L78.2847 4.9095L76.143 3.53046C75.7928 3.96248 75.3533 4.31358 74.8546 4.55961C74.3559 4.80564 73.8098 4.94078 73.2539 4.95573ZM73.5929 5.37946H81.1661V8.63061H79.4481V6.82784H73.5929V5.37946ZM82.1676 3.06821H81.1661V5.079H79.4789V0.00195312H81.1661V1.48115H82.1676V3.06821Z" fill="#040000"/>
</g>
<defs>
<linearGradient id="paint0_linear_472_94496" x1="13.7085" y1="7.00455" x2="13.7085" y2="39.2079" gradientUnits="userSpaceOnUse">
<stop stop-color="#E95147"/>
<stop offset="1" stop-color="#DE143D"/>
</linearGradient>
<linearGradient id="paint1_linear_472_94496" x1="45.5949" y1="7.00367" x2="45.5949" y2="39.2071" gradientUnits="userSpaceOnUse">
<stop stop-color="#E95147"/>
<stop offset="1" stop-color="#DE143D"/>
</linearGradient>
<clipPath id="clip0_472_94496">
<rect width="120.871" height="40" fill="white" transform="translate(0.0644531)"/>
</clipPath>
</defs>
</svg>
